PathFileType	4	(X/Y/Z)	C:\Users\86182\Documents\cortex\Trimmed_M3_H7.trc
DataRate	CameraRate	NumFrames	NumMarkers	Units	OrigDataRate	OrigDataStartFrame	OrigNumFrames
100.00	100.00	       113	2	mm	100.00	181	       901
Frame#	Time	gripper			box			
		X1	Y1	Z1	X2	Y2	Z2	

181	1.800	268.52289	172.53983	206.65030	269.29584	168.47122	70.45119	
182	1.810	268.51532	172.54434	207.09691	269.28845	168.48596	70.89499	
183	1.820	268.50095	172.55302	207.54303	269.27768	168.50444	71.33936	
184	1.830	268.48132	172.56694	207.98602	269.26169	168.52602	71.77927	
185	1.840	268.45670	172.58665	208.42358	269.23889	168.55002	72.21174	
186	1.850	268.42819	172.61082	208.85391	269.21017	168.57510	72.63713	
187	1.860	268.39850	172.63631	209.27708	269.17874	168.59895	73.05756	
188	1.870	268.37018	172.65938	209.69571	269.14853	168.61917	73.47491	
189	1.880	268.34491	172.67685	210.11279	269.12192	168.63470	73.88992	
190	1.890	268.32291	172.68657	210.52951	269.09943	168.64580	74.30229	
191	1.900	268.30264	172.68803	210.94576	269.08163	168.65254	74.71181	
192	1.910	268.28189	172.68222	211.36189	269.07089	168.65401	75.11987	
193	1.920	268.26050	172.66997	211.77895	269.06970	168.64877	75.53018	
194	1.930	268.24179	172.65099	212.19810	269.07806	168.63628	75.94701	
195	1.940	268.22992	172.62508	212.62053	269.09348	168.61774	76.37193	
196	1.950	268.22577	172.59424	213.04692	269.11267	168.59576	76.80257	
197	1.960	268.22504	172.56303	213.47731	269.13324	168.57307	77.23486	
198	1.970	268.22192	172.53583	213.91179	269.15372	168.55202	77.66631	
199	1.980	268.21411	172.51462	214.35072	269.17313	168.53517	78.09712	
200	1.990	268.20273	172.49956	214.79298	269.19019	168.52510	78.52814	
201	2.000	268.18942	172.49059	215.23494	269.20239	168.52332	78.95799	
202	2.010	268.17535	172.48805	215.67224	269.20670	168.52928	79.38324	
203	2.020	268.16165	172.49173	216.10272	269.20151	168.54143	79.80149	
204	2.030	268.14951	172.49989	216.52721	269.18768	168.55823	80.21431	
205	2.040	268.13925	172.50960	216.94794	269.16769	168.57753	80.62621	
206	2.050	268.12903	172.51825	217.36659	269.14389	168.59599	81.04024	
207	2.060	268.11526	172.52525	217.78329	269.11761	168.61044	81.45491	
208	2.070	268.09464	172.53194	218.19765	269.08893	168.61948	81.86644	
209	2.080	268.06747	172.53932	218.61090	269.05798	168.62398	82.27451	
210	2.090	268.03821	172.54683	219.02617	269.02771	168.62549	82.68352	
211	2.100	268.01266	172.55284	219.44614	269.00488	168.62428	83.09814	
212	2.110	267.99542	172.55545	219.87111	268.99594	168.61975	83.51969	
213	2.120	267.98886	172.55365	220.29977	269.00150	168.61237	83.94657	
214	2.130	267.99319	172.54880	220.73161	269.01694	168.60460	84.37700	
215	2.140	268.00589	172.54395	221.16769	269.03757	168.59973	84.81076	
216	2.150	268.02252	172.54141	221.60895	269.06134	168.59918	85.24873	
217	2.160	268.03900	172.54163	222.05411	269.08691	168.60124	85.69107	
218	2.170	268.05356	172.54420	222.49969	269.10999	168.60300	86.13617	
219	2.180	268.06622	172.54953	222.94221	269.12119	168.60274	86.58179	
220	2.190	268.07797	172.55812	223.38013	269.10703	168.59909	87.02708	
221	2.200	268.09073	172.56863	223.81351	269.05426	168.58911	87.47328	
222	2.210	268.10623	172.57750	224.24232	268.95392	168.56866	87.92229	
223	2.220	268.12430	172.58138	224.66618	268.80313	168.53423	88.37489	
224	2.230	268.14182	172.58014	225.08577	268.60709	168.48488	88.82970	
225	2.240	268.15472	172.57704	225.50345	268.38608	168.42514	89.28239	
226	2.250	268.16101	172.57556	225.92189	268.18826	168.36844	89.72546	
227	2.260	268.16180	172.57654	226.34236	268.08051	168.33466	90.15077	
228	2.270	268.15918	172.57895	226.76527	268.09302	168.33475	90.55829	
229	2.280	268.15405	172.58260	227.19154	268.18076	168.35916	90.96103	
230	2.290	268.14740	172.58873	227.62238	268.26392	168.38837	91.37534	
231	2.300	268.14182	172.59798	228.05783	268.28558	168.40865	91.80950	
232	2.310	268.13889	172.60965	228.49670	268.22665	168.41666	92.26360	
233	2.320	268.13730	172.62352	228.93710	268.10361	168.41805	92.73265	
234	2.330	268.13483	172.64073	229.37723	267.97192	168.42673	93.20599	
235	2.340	268.13019	172.66238	229.81555	267.91122	168.45969	93.66764	
236	2.350	268.12228	172.68817	230.25096	267.96790	168.52348	94.10492	
237	2.360	268.11011	172.71646	230.68283	268.11435	168.60712	94.51768	
238	2.370	268.09467	172.74460	231.11093	268.28616	168.69318	94.91602	
239	2.380	268.07901	172.76936	231.53528	268.43604	168.77002	95.31090	
240	2.390	268.06601	172.78838	231.95584	268.54483	168.83266	95.70885	
241	2.400	268.05646	172.80153	232.37277	268.61133	168.87982	96.11151	
242	2.410	268.04990	172.81038	232.78676	268.64188	168.91237	96.51741	
243	2.420	268.04663	172.81642	233.19882	268.64447	168.93214	96.92455	
244	2.430	268.04834	172.82039	233.61009	268.62900	168.94179	97.33277	
245	2.440	268.05603	172.82271	234.02246	268.60706	168.94539	97.74390	
246	2.450	268.06857	172.82423	234.43863	268.58875	168.94760	98.16057	
247	2.460	268.08365	172.82597	234.86058	268.57950	168.95154	98.58522	
248	2.470	268.09985	172.82877	235.28851	268.58041	168.95734	99.01834	
249	2.480	268.11688	172.83354	235.72238	268.59100	168.96323	99.45819	
250	2.490	268.13467	172.84103	236.16321	268.61157	168.96851	99.90306	
251	2.500	268.15305	172.85114	236.61165	268.64133	168.97527	100.35255	
252	2.510	268.17200	172.86334	237.06677	268.67648	168.98718	100.80637	
253	2.520	268.19159	172.87779	237.52628	268.71143	169.00655	101.26282	
254	2.530	268.21088	172.89539	237.98718	268.74118	169.03227	101.71922	
255	2.540	268.22726	172.91649	238.44646	268.76273	169.06087	102.17316	
256	2.550	268.23776	172.93930	238.90150	268.77518	169.08911	102.62270	
257	2.560	268.24158	172.96098	239.35034	268.77844	169.11662	103.06619	
258	2.570	268.23975	172.98044	239.79166	268.77127	169.14595	103.50224	
259	2.580	268.23352	172.99873	240.22537	268.75162	169.17947	103.92960	
260	2.590	268.22470	173.01645	240.65195	268.71991	169.21637	104.34764	
261	2.600	268.21585	173.03233	241.07138	268.68088	169.25298	104.75827	
262	2.610	268.20865	173.04507	241.48471	268.64099	169.28596	105.16679	
263	2.620	268.20285	173.05504	241.89580	268.60452	169.31468	105.57964	
264	2.630	268.19720	173.06366	242.30949	268.57300	169.34032	106.00032	
265	2.640	268.19165	173.07146	242.72778	268.54733	169.36325	106.42731	
266	2.650	268.18817	173.07687	243.14955	268.52905	169.38182	106.85658	
267	2.660	268.18982	173.07770	243.57404	268.51999	169.39363	107.28587	
268	2.670	268.19882	173.07330	244.00214	268.52118	169.39760	107.71584	
269	2.680	268.21567	173.06508	244.43446	268.53271	169.39462	108.14756	
270	2.690	268.23898	173.05463	244.87006	268.55334	169.38672	108.57990	
271	2.700	268.26550	173.04254	245.30707	268.57925	169.37610	109.01024	
272	2.710	268.29147	173.02959	245.74370	268.60495	169.36465	109.43742	
273	2.720	268.31436	173.01778	246.17854	268.62671	169.35327	109.86275	
274	2.730	268.33298	173.00928	246.61035	268.64392	169.34187	110.28847	
275	2.740	268.34625	173.00456	247.03729	268.65640	169.33089	110.71533	
276	2.750	268.35291	173.00237	247.45760	268.66232	169.32263	111.14108	
277	2.760	268.35193	173.00069	247.87170	268.65900	169.31947	111.56219	
278	2.770	268.34222	172.99788	248.28256	268.64627	169.32118	111.97704	
279	2.780	268.32278	172.99359	248.69273	268.62772	169.32500	112.38654	
280	2.790	268.29352	172.98923	249.10287	268.60876	169.32881	112.79268	
281	2.800	268.25500	172.98677	249.51324	268.59271	169.33301	113.19777	
282	2.810	268.20810	172.98703	249.92465	268.57864	169.33928	113.60373	
283	2.820	268.15527	172.98874	250.33823	268.56317	169.34851	114.01051	
284	2.830	268.10114	172.99010	250.75592	268.54501	169.35945	114.41622	
285	2.840	268.05084	172.99086	251.18066	268.52692	169.36908	114.82043	
286	2.850	268.00775	172.99194	251.61368	268.51346	169.37505	115.22704	
287	2.860	267.97400	172.99350	252.05206	268.50772	169.37752	115.64165	
288	2.870	267.95184	172.99409	252.49164	268.51007	169.37854	116.06589	
289	2.880	267.94363	172.99210	252.93082	268.51825	169.37973	116.49689	
290	2.890	267.94974	172.98708	253.36993	268.52942	169.38075	116.93217	
291	2.900	267.96637	172.98004	253.80862	268.54218	169.38042	117.37241	
292	2.910	267.98727	172.97255	254.24568	268.55640	169.37898	117.81842	
293	2.920	268.00629	172.96587	254.68048	268.57156	169.37784	118.26764	
